<svg width="33" height="32" viewBox="0 0 33 32" fill="none" xmlns="http://www.w3.org/2000/svg">
<g clip-path="url(#clip0_111_4449)">
<path d="M30.5 16C30.5 17.305 29.5613 18.2837 28.7325 19.1475C28.2613 19.64 27.7738 20.1475 27.59 20.5938C27.42 21.0025 27.41 21.68 27.4 22.3363C27.3812 23.5563 27.3612 24.9387 26.4 25.9C25.4387 26.8612 24.0563 26.8812 22.8363 26.9C22.18 26.91 21.5025 26.92 21.0938 27.09C20.6475 27.2738 20.14 27.7613 19.6475 28.2325C18.7837 29.0613 17.805 30 16.5 30C15.195 30 14.2162 29.0613 13.3525 28.2325C12.86 27.7613 12.3525 27.2738 11.9062 27.09C11.4975 26.92 10.82 26.91 10.1637 26.9C8.94375 26.8812 7.56125 26.8612 6.6 25.9C5.63875 24.9387 5.61875 23.5563 5.6 22.3363C5.59 21.68 5.58 21.0025 5.41 20.5938C5.22625 20.1475 4.73875 19.64 4.2675 19.1475C3.43875 18.2837 2.5 17.305 2.5 16C2.5 14.695 3.43875 13.7162 4.2675 12.8525C4.73875 12.36 5.22625 11.8525 5.41 11.4062C5.58 10.9975 5.59 10.32 5.6 9.66375C5.61875 8.44375 5.63875 7.06125 6.6 6.1C7.56125 5.13875 8.94375 5.11875 10.1637 5.1C10.82 5.09 11.4975 5.08 11.9062 4.91C12.3525 4.72625 12.86 4.23875 13.3525 3.7675C14.2162 2.93875 15.195 2 16.5 2C17.805 2 18.7837 2.93875 19.6475 3.7675C20.14 4.23875 20.6475 4.72625 21.0938 4.91C21.5025 5.08 22.18 5.09 22.8363 5.1C24.0563 5.11875 25.4387 5.13875 26.4 6.1C27.3612 7.06125 27.3812 8.44375 27.4 9.66375C27.41 10.32 27.42 10.9975 27.59 11.4062C27.7738 11.8525 28.2613 12.36 28.7325 12.8525C29.5613 13.7162 30.5 14.695 30.5 16Z" fill="#D2EEDC"/>
<g clip-path="url(#clip1_111_4449)">
<path d="M10.3125 17.125L14.25 21.0625L23.25 12.0625" stroke="#00B741" stroke-width="2.2" stroke-linecap="round" stroke-linejoin="round"/>
</g>
</g>
<defs>
<clipPath id="clip0_111_4449">
<rect width="32" height="32" fill="white" transform="translate(0.5)"/>
</clipPath>
<clipPath id="clip1_111_4449">
<rect width="18" height="18" fill="white" transform="translate(7.5 7)"/>
</clipPath>
</defs>
</svg>
