<svg width="33" height="32" viewBox="0 0 33 32" fill="none" xmlns="http://www.w3.org/2000/svg">
<g clip-path="url(#clip0_111_4440)">
<path d="M30.833 16C30.833 17.305 29.8943 18.2837 29.0655 19.1475C28.5943 19.64 28.1068 20.1475 27.923 20.5938C27.753 21.0025 27.743 21.68 27.733 22.3363C27.7143 23.5562 27.6943 24.9387 26.733 25.9C25.7718 26.8612 24.3893 26.8813 23.1693 26.9C22.513 26.91 21.8355 26.92 21.4268 27.09C20.9805 27.2738 20.473 27.7612 19.9805 28.2325C19.1168 29.0613 18.138 30 16.833 30C15.528 30 14.5493 29.0613 13.6855 28.2325C13.193 27.7612 12.6855 27.2738 12.2393 27.09C11.8305 26.92 11.153 26.91 10.4968 26.9C9.27676 26.8813 7.89426 26.8612 6.93301 25.9C5.97176 24.9387 5.95176 23.5562 5.93301 22.3363C5.92301 21.68 5.91301 21.0025 5.74301 20.5938C5.55926 20.1475 5.07176 19.64 4.60051 19.1475C3.77176 18.2837 2.83301 17.305 2.83301 16C2.83301 14.695 3.77176 13.7162 4.60051 12.8525C5.07176 12.36 5.55926 11.8525 5.74301 11.4062C5.91301 10.9975 5.92301 10.32 5.93301 9.66375C5.95176 8.44375 5.97176 7.06125 6.93301 6.1C7.89426 5.13875 9.27676 5.11875 10.4968 5.1C11.153 5.09 11.8305 5.08 12.2393 4.91C12.6855 4.72625 13.193 4.23875 13.6855 3.7675C14.5493 2.93875 15.528 2 16.833 2C18.138 2 19.1168 2.93875 19.9805 3.7675C20.473 4.23875 20.9805 4.72625 21.4268 4.91C21.8355 5.08 22.513 5.09 23.1693 5.1C24.3893 5.11875 25.7718 5.13875 26.733 6.1C27.6943 7.06125 27.7143 8.44375 27.733 9.66375C27.743 10.32 27.753 10.9975 27.923 11.4062C28.1068 11.8525 28.5943 12.36 29.0655 12.8525C29.8943 13.7162 30.833 14.695 30.833 16Z" fill="#F7D9D9"/>
<g clip-path="url(#clip1_111_4440)">
<path d="M21.8955 10.8518L11.7705 20.9768" stroke="#EB2929" stroke-width="2" stroke-linecap="round" stroke-linejoin="round"/>
<path d="M21.8955 20.9768L11.7705 10.8518" stroke="#EB2929" stroke-width="2" stroke-linecap="round" stroke-linejoin="round"/>
</g>
</g>
<defs>
<clipPath id="clip0_111_4440">
<rect width="32" height="32" fill="white" transform="translate(0.833008)"/>
</clipPath>
<clipPath id="clip1_111_4440">
<rect width="18" height="18" fill="white" transform="translate(7.83301 6.91431)"/>
</clipPath>
</defs>
</svg>
